HIERARCHY
ROOT Storm:Solving:Root
{
	OFFSET 0.000000 0.000000 0.000000
	CHANNELS 6 Xposition Yposition Zposition Xrotation Yrotation Zrotation
	JOINT Storm:Solving:L_Clav
	{
		OFFSET 0.000000 0.000000 0.000000
		CHANNELS 6 Xposition Yposition Zposition Xrotation Yrotation Zrotation
		JOINT Storm:Solving:L_Scapula_Joint
		{
			OFFSET 4.000000 0.000000 0.000000
			CHANNELS 6 Xposition Yposition Zposition Xrotation Yrotation Zrotation
			JOINT Storm:Solving:L_Shoulder_Joint
			{
				OFFSET 4.002680 -11.084217 10.770057
				CHANNELS 6 Xposition Yposition Zposition Xrotation Yrotation Zrotation
				JOINT Storm:Solving:L_Elbow_Joint
				{
					OFFSET 2.147804 -15.161016 -8.035206
					CHANNELS 6 Xposition Yposition Zposition Xrotation Yrotation Zrotation
					JOINT Storm:Solving:L_Wrist_Joint
					{
						OFFSET -2.240269 -20.029085 -9.040075
						CHANNELS 6 Xposition Yposition Zposition Xrotation Yrotation Zrotation
						JOINT Storm:Solving:L_Paw_Joint
						{
							OFFSET 0.706234 -5.721245 1.834930
							CHANNELS 6 Xposition Yposition Zposition Xrotation Yrotation Zrotation
							JOINT Storm:Solving:NewBone_4
							{
								OFFSET 1.343818 -3.510090 4.244948
								CHANNELS 6 Xposition Yposition Zposition Xrotation Yrotation Zrotation
								End Site
								{
									OFFSET 5.410949 0.263100 -1.672891
								}
							}
						}
					}
				}
			}
		}
	}
	JOINT Storm:Solving:R_Clav
	{
		OFFSET 0.000000 0.000000 0.000000
		CHANNELS 6 Xposition Yposition Zposition Xrotation Yrotation Zrotation
		JOINT Storm:Solving:R_Scapula_Joint
		{
			OFFSET -4.000000 -0.000000 0.000001
			CHANNELS 6 Xposition Yposition Zposition Xrotation Yrotation Zrotation
			JOINT Storm:Solving:NewBone_3
			{
				OFFSET -4.614829 -11.686039 9.889529
				CHANNELS 6 Xposition Yposition Zposition Xrotation Yrotation Zrotation
				JOINT Storm:Solving:R_Elbow_Joint
				{
					OFFSET -0.160743 -16.404385 -5.491840
					CHANNELS 6 Xposition Yposition Zposition Xrotation Yrotation Zrotation
					JOINT Storm:Solving:R_Wrist_Joint
					{
						OFFSET 2.412016 -21.935680 1.190893
						CHANNELS 6 Xposition Yposition Zposition Xrotation Yrotation Zrotation
						JOINT Storm:Solving:R_Paw_Joint
						{
							OFFSET -0.535018 -3.351765 3.806499
							CHANNELS 6 Xposition Yposition Zposition Xrotation Yrotation Zrotation
							JOINT Storm:Solving:NewBone_5
							{
								OFFSET -0.877549 -2.975662 5.252175
								CHANNELS 6 Xposition Yposition Zposition Xrotation Yrotation Zrotation
								End Site
								{
									OFFSET 5.926299 0.585030 1.321637
								}
							}
						}
					}
				}
			}
		}
	}
	JOINT Storm:Solving:Root_To_Spine_Dummy
	{
		OFFSET 0.000000 0.000000 0.000000
		CHANNELS 6 Xposition Yposition Zposition Xrotation Yrotation Zrotation
		JOINT Storm:Solving:Spine1
		{
			OFFSET 0.000000 0.000000 -3.827275
			CHANNELS 6 Xposition Yposition Zposition Xrotation Yrotation Zrotation
			JOINT Storm:Solving:Spine2
			{
				OFFSET 0.000001 0.000000 -16.939260
				CHANNELS 6 Xposition Yposition Zposition Xrotation Yrotation Zrotation
				JOINT Storm:Solving:Spine3
				{
					OFFSET 0.000002 0.000000 -14.393892
					CHANNELS 6 Xposition Yposition Zposition Xrotation Yrotation Zrotation
					JOINT Storm:Solving:Pelvis_Root
					{
						OFFSET 0.000002 0.000000 -14.393890
						CHANNELS 6 Xposition Yposition Zposition Xrotation Yrotation Zrotation
						JOINT Storm:Solving:L_Pelvis
						{
							OFFSET 0.000000 0.000000 0.000000
							CHANNELS 6 Xposition Yposition Zposition Xrotation Yrotation Zrotation
							JOINT Storm:Solving:LFemur_Joint
							{
								OFFSET 8.318080 -6.780918 -6.728058
								CHANNELS 6 Xposition Yposition Zposition Xrotation Yrotation Zrotation
								JOINT Storm:Solving:LTibia_Joint
								{
									OFFSET 4.762119 -18.232958 12.109562
									CHANNELS 6 Xposition Yposition Zposition Xrotation Yrotation Zrotation
									JOINT Storm:Solving:LAnkle_Joint
									{
										OFFSET 1.748854 -18.426313 -12.690502
										CHANNELS 6 Xposition Yposition Zposition Xrotation Yrotation Zrotation
										JOINT Storm:Solving:LFoot_Joint
										{
											OFFSET 2.893215 -10.324425 3.420891
											CHANNELS 6 Xposition Yposition Zposition Xrotation Yrotation Zrotation
											JOINT Storm:Solving:LFoot_End
											{
												OFFSET 3.317142 -1.153622 6.178677
												CHANNELS 6 Xposition Yposition Zposition Xrotation Yrotation Zrotation
												End Site
												{
													OFFSET 6.285072 0.685661 -3.246243
												}
											}
										}
									}
								}
							}
						}
						JOINT Storm:Solving:R_Pelvis
						{
							OFFSET 0.000000 0.000000 0.000000
							CHANNELS 6 Xposition Yposition Zposition Xrotation Yrotation Zrotation
							JOINT Storm:Solving:RFemur_Joint
							{
								OFFSET -8.082922 -7.104603 -6.553699
								CHANNELS 6 Xposition Yposition Zposition Xrotation Yrotation Zrotation
								JOINT Storm:Solving:RTibia_Joint
								{
									OFFSET -3.034004 -18.950596 11.551186
									CHANNELS 6 Xposition Yposition Zposition Xrotation Yrotation Zrotation
									JOINT Storm:Solving:RAnkle_Joint
									{
										OFFSET 0.163292 -19.936810 -10.210636
										CHANNELS 6 Xposition Yposition Zposition Xrotation Yrotation Zrotation
										JOINT Storm:Solving:RFoot_Joint
										{
											OFFSET -0.793680 -9.967937 0.101715
											CHANNELS 6 Xposition Yposition Zposition Xrotation Yrotation Zrotation
											JOINT Storm:Solving:RFoot_End
											{
												OFFSET -4.434014 -1.490955 4.525612
												CHANNELS 6 Xposition Yposition Zposition Xrotation Yrotation Zrotation
												End Site
												{
													OFFSET -4.697033 0.328136 -4.493862
												}
											}
										}
									}
								}
							}
						}
					}
				}
			}
		}
	}
	JOINT Storm:Solving:Root_To_Neck
	{
		OFFSET 0.000000 0.000000 0.000000
		CHANNELS 6 Xposition Yposition Zposition Xrotation Yrotation Zrotation
		JOINT Storm:Solving:Neck1
		{
			OFFSET 0.000000 4.185541 5.729186
			CHANNELS 6 Xposition Yposition Zposition Xrotation Yrotation Zrotation
			JOINT Storm:Solving:Neck2
			{
				OFFSET 2.125778 5.862305 7.100437
				CHANNELS 6 Xposition Yposition Zposition Xrotation Yrotation Zrotation
				JOINT Storm:Solving:Head
				{
					OFFSET -4.381103 5.689912 1.801980
					CHANNELS 6 Xposition Yposition Zposition Xrotation Yrotation Zrotation
					JOINT Storm:Solving:Head_End
					{
						OFFSET -9.753127 2.579648 15.562063
						CHANNELS 6 Xposition Yposition Zposition Xrotation Yrotation Zrotation
						End Site
						{
							OFFSET -4.085257 17.259090 -5.421284
						}
					}
				}
			}
		}
	}
	JOINT Storm:Solving:R_Clav_1
	{
		OFFSET 0.000000 0.000000 0.000000
		CHANNELS 6 Xposition Yposition Zposition Xrotation Yrotation Zrotation
		End Site
		{
			OFFSET 0.000000 0.010000 -0.000000
		}
	}
}
MOTION
Frames: 4
Frame Time: 0.008333
113.527458 57.082485 -22.768066 12.662952 73.733402 -7.828438 0.000005 0.000003 0.000010 -0.239542 0.033125 -7.873046 4.000001 0.000007 -0.000001 -0.616708 11.381231 1.573145 4.002678 -11.084214 10.770062 -1.913035 -4.130002 -3.733582 2.147802 -15.161025 -8.035207 -21.256896 3.852208 13.736868 -2.240268 -20.029089 -9.040074 -2.347789 -2.192095 5.070297 0.706230 -5.721240 1.834927 6.139859 0.196256 -1.909403 1.343816 -3.510071 4.244936 0.000003 0.000001 0.000001 0.000005 0.000003 0.000010 4.299442 -1.122855 -14.609459 -3.999995 -0.000013 0.000002 4.771141 8.199320 5.711853 -4.614824 -11.686034 9.889534 -1.592814 6.860618 0.216855 -0.160743 -16.404381 -5.491831 -4.477768 -0.488553 0.205614 2.412017 -21.935680 1.190888 -13.174731 6.408866 -3.328269 -0.535015 -3.351773 3.806482 6.782766 0.758522 1.471551 -0.877551 -2.975670 5.252172 0.000001 -0.000002 0.000001 0.000005 0.000003 0.000010 0.000000 0.000000 -0.000000 0.000005 0.000001 -3.827263 -8.711438 18.060244 -2.713065 0.000002 -0.000001 -16.939262 7.331255 10.309106 1.403190 0.000004 -0.000003 -14.393897 7.455660 6.804518 -10.890912 0.000002 0.000006 -14.393890 -0.614428 -1.521996 1.823770 -0.000000 0.000001 -0.000000 -0.000001 0.000001 0.000005 8.318087 -6.780923 -6.728064 2.198949 -5.867455 -4.508413 4.762120 -18.232960 12.109561 -8.713545 -2.035751 1.435545 1.748851 -18.426327 -12.690507 -11.529745 -3.084116 -2.900458 2.893211 -10.324427 3.420892 3.105211 0.294745 -1.609978 3.317140 -1.153626 6.178679 -0.000000 0.000003 0.000000 0.000003 0.000007 0.000004 0.000001 0.000004 -0.000004 -8.082926 -7.104600 -6.553703 1.076568 -1.627805 9.779519 -3.034005 -18.950602 11.551185 -2.705326 0.221493 -0.449797 0.163295 -19.936817 -10.210634 -1.436938 0.106461 0.959966 -0.793688 -9.967943 0.101716 0.601100 -0.038959 0.575114 -4.434014 -1.490953 4.525612 -0.000002 0.000005 0.000001 0.000005 0.000003 0.000010 0.000003 0.000003 -0.000001 0.000002 4.185535 5.729200 4.868167 -15.914155 11.849697 2.125764 5.862309 7.100434 9.335855 6.413788 10.287328 -4.381107 5.689911 1.801978 12.808687 -44.104803 10.164877 -9.753110 2.579657 15.562054 -0.000003 -0.000003 0.000000 0.000005 0.000003 0.000010 0.000000 0.000001 -0.000000 
113.527458 57.082485 -22.768066 12.662952 73.733402 -7.828438 0.000005 0.000003 0.000010 -0.239542 0.033125 -7.873046 4.000001 0.000007 -0.000001 -0.616708 11.381231 1.573145 4.002678 -11.084214 10.770062 -1.913035 -4.130002 -3.733582 2.147802 -15.161025 -8.035207 -21.256896 3.852208 13.736868 -2.240268 -20.029089 -9.040074 -2.347789 -2.192095 5.070297 0.706230 -5.721240 1.834927 6.139859 0.196256 -1.909403 1.343816 -3.510071 4.244936 0.000003 0.000001 0.000001 0.000005 0.000003 0.000010 4.299442 -1.122855 -14.609459 -3.999995 -0.000013 0.000002 4.771141 8.199320 5.711853 -4.614824 -11.686034 9.889534 -1.592814 6.860618 0.216855 -0.160743 -16.404381 -5.491831 -4.477768 -0.488553 0.205614 2.412017 -21.935680 1.190888 -13.174731 6.408866 -3.328269 -0.535015 -3.351773 3.806482 6.782766 0.758522 1.471551 -0.877551 -2.975670 5.252172 0.000001 -0.000002 0.000001 0.000005 0.000003 0.000010 0.000000 0.000000 -0.000000 0.000005 0.000001 -3.827263 -8.711438 18.060244 -2.713065 0.000002 -0.000001 -16.939262 7.331255 10.309106 1.403190 0.000004 -0.000003 -14.393897 7.455660 6.804518 -10.890912 0.000002 0.000006 -14.393890 -0.614428 -1.521996 1.823770 -0.000000 0.000001 -0.000000 -0.000001 0.000001 0.000005 8.318087 -6.780923 -6.728064 2.198949 -5.867455 -4.508413 4.762120 -18.232960 12.109561 -8.713545 -2.035751 1.435545 1.748851 -18.426327 -12.690507 -11.529745 -3.084116 -2.900458 2.893211 -10.324427 3.420892 3.105211 0.294745 -1.609978 3.317140 -1.153626 6.178679 -0.000000 0.000003 0.000000 0.000003 0.000007 0.000004 0.000001 0.000004 -0.000004 -8.082926 -7.104600 -6.553703 1.076568 -1.627805 9.779519 -3.034005 -18.950602 11.551185 -2.705326 0.221493 -0.449797 0.163295 -19.936817 -10.210634 -1.436938 0.106461 0.959966 -0.793688 -9.967943 0.101716 0.601100 -0.038959 0.575114 -4.434014 -1.490953 4.525612 -0.000002 0.000005 0.000001 0.000005 0.000003 0.000010 0.000003 0.000003 -0.000001 0.000002 4.185535 5.729200 4.868167 -15.914155 11.849697 2.125764 5.862309 7.100434 9.335855 6.413788 10.287328 -4.381107 5.689911 1.801978 12.808687 -44.104803 10.164877 -9.753110 2.579657 15.562054 -0.000003 -0.000003 0.000000 0.000005 0.000003 0.000010 0.000000 0.000001 -0.000000 
113.531105 57.084972 -22.748581 12.820172 73.764137 -7.886515 -0.000000 -0.000002 0.000007 -0.246994 0.034478 -7.946044 4.000000 0.000003 0.000003 -0.629238 11.423321 1.566618 4.002682 -11.084223 10.770050 -1.963842 -4.113906 -3.712446 2.147810 -15.160999 -8.035206 -21.193047 3.698507 13.655940 -2.240268 -20.029099 -9.040053 -2.350922 -2.125786 5.025174 0.706233 -5.721232 1.834930 6.134756 0.196178 -1.907808 1.343812 -3.510094 4.244944 0.000009 0.000000 -0.000000 -0.000000 -0.000002 0.000007 4.304111 -1.136926 -14.769131 -4.000000 0.000005 0.000014 4.721427 8.137901 5.928048 -4.614828 -11.686041 9.889528 -1.548744 6.874684 0.052799 -0.160744 -16.404377 -5.491842 -4.482694 -0.489098 0.205819 2.412019 -21.935688 1.190894 -13.292089 6.436687 -3.294943 -0.535018 -3.351762 3.806497 6.929122 0.776815 1.502320 -0.877547 -2.975664 5.252166 0.000005 0.000000 0.000001 -0.000000 -0.000002 0.000007 0.000000 0.000001 -0.000000 -0.000002 0.000000 -3.827269 -8.687657 17.972666 -2.821825 0.000003 -0.000003 -16.939264 7.272505 10.282809 1.362197 0.000004 -0.000003 -14.393904 7.457981 6.842621 -10.946697 0.000004 0.000002 -14.393894 -0.594392 -1.486807 1.898078 -0.000003 0.000004 -0.000000 0.000001 -0.000003 0.000005 8.318084 -6.780918 -6.728058 2.208277 -5.894531 -4.535450 4.762121 -18.232952 12.109565 -8.727252 -2.039130 1.437566 1.748852 -18.426311 -12.690512 -11.523145 -3.078790 -2.873961 2.893212 -10.324417 3.420886 3.086595 0.293238 -1.600293 3.317142 -1.153627 6.178679 -0.000001 0.000002 0.000003 0.000000 0.000009 -0.000000 -0.000000 0.000004 -0.000004 -8.082918 -7.104597 -6.553697 1.065605 -1.634888 9.749561 -3.034003 -18.950592 11.551182 -2.713780 0.222220 -0.451185 0.163294 -19.936821 -10.210629 -1.402634 0.104547 0.974284 -0.793686 -9.967946 0.101710 0.615459 -0.039822 0.588854 -4.434015 -1.490955 4.525613 0.000000 0.000003 -0.000000 -0.000000 -0.000002 0.000007 0.000003 0.000002 -0.000000 0.000004 4.185539 5.729181 4.845366 -15.867667 11.814459 2.125775 5.862308 7.100431 9.407810 6.487573 10.323985 -4.381099 5.689914 1.801963 12.652814 -43.954419 10.067123 -9.753117 2.579642 15.562053 -0.000003 -0.000001 0.000001 -0.000000 -0.000002 0.000007 0.000000 0.000001 -0.000000 
113.535149 57.086536 -22.732613 13.023631 73.787640 -7.984369 -0.000001 0.000000 0.000009 -0.248749 0.034886 -7.983181 3.999995 0.000011 0.000004 -0.635044 11.464348 1.508017 4.002680 -11.084213 10.770065 -2.014225 -4.086143 -3.680201 2.147805 -15.161007 -8.035197 -21.175627 3.525034 13.609598 -2.240271 -20.029093 -9.040067 -2.290765 -2.104763 5.013465 0.706233 -5.721253 1.834921 6.106144 0.195739 -1.898875 1.343818 -3.510102 4.244947 0.000006 0.000001 -0.000001 -0.000001 0.000000 0.000009 4.285009 -1.141411 -14.888206 -3.999997 -0.000003 0.000006 4.663797 8.065513 6.059088 -4.614830 -11.686039 9.889531 -1.486363 6.854081 -0.037233 -0.160743 -16.404396 -5.491827 -4.499607 -0.490973 0.206523 2.412019 -21.935682 1.190894 -13.215923 6.452945 -3.287074 -0.535019 -3.351763 3.806494 6.822531 0.763485 1.479913 -0.877551 -2.975664 5.252185 0.000005 0.000000 0.000001 -0.000001 0.000000 0.000009 -0.000000 0.000000 -0.000000 -0.000003 0.000000 -3.827273 -8.664641 17.905360 -2.932314 -0.000001 0.000000 -16.939262 7.208127 10.239626 1.346047 0.000003 -0.000001 -14.393901 7.429099 6.892863 -10.962471 -0.000002 0.000003 -14.393886 -0.559599 -1.480777 1.893378 -0.000000 -0.000000 -0.000004 -0.000001 0.000003 0.000003 8.318088 -6.780925 -6.728063 2.187679 -5.870364 -4.533036 4.762120 -18.232956 12.109556 -8.661546 -2.022948 1.427892 1.748854 -18.426304 -12.690506 -11.496923 -3.082153 -2.915684 2.893218 -10.324421 3.420894 3.051945 0.290436 -1.582267 3.317138 -1.153625 6.178674 0.000001 0.000002 0.000001 0.000003 0.000007 0.000000 -0.000000 0.000004 -0.000004 -8.082922 -7.104601 -6.553703 1.070833 -1.616003 9.740144 -3.034004 -18.950596 11.551190 -2.709289 0.221834 -0.450448 0.163296 -19.936802 -10.210635 -1.405652 0.104619 0.955826 -0.793681 -9.967946 0.101707 0.664467 -0.042711 0.635749 -4.434015 -1.490965 4.525609 0.000003 0.000001 0.000000 -0.000001 0.000000 0.000009 0.000002 0.000001 0.000000 -0.000003 4.185549 5.729193 4.804602 -15.807086 11.767747 2.125767 5.862311 7.100432 9.456219 6.537286 10.349077 -4.381091 5.689909 1.801978 12.533784 -43.750145 9.991870 -9.753117 2.579649 15.562066 0.000001 0.000000 -0.000003 -0.000001 0.000000 0.000009 -0.000001 0.000001 0.000000 
